<svg xmlns="http://www.w3.org/2000/svg" width="385.948" height="55.262" viewBox="0 0 385.948 55.262">
  <path id="Union_1" data-name="Union 1" d="M-1765.057,53.5a5.085,5.085,0,0,1-1.934-2.184,7.521,7.521,0,0,1-.694-3.265v-.633a7.676,7.676,0,0,1,.681-3.326,5.058,5.058,0,0,1,1.925-2.206,5.291,5.291,0,0,1,2.843-.77,5.291,5.291,0,0,1,2.843.77,5.069,5.069,0,0,1,1.925,2.206,7.667,7.667,0,0,1,.68,3.317v.571a7.725,7.725,0,0,1-.668,3.314,5.036,5.036,0,0,1-1.912,2.2,5.286,5.286,0,0,1-2.852.773A5.325,5.325,0,0,1-1765.057,53.5Zm.773-9.172a5.321,5.321,0,0,0-.729,3.028v.624a5.452,5.452,0,0,0,.721,3.041,2.341,2.341,0,0,0,2.074,1.081,2.324,2.324,0,0,0,2.039-1.041,5.428,5.428,0,0,0,.721-3.037V47.4a5.385,5.385,0,0,0-.721-3.058,2.349,2.349,0,0,0-2.057-1.046A2.35,2.35,0,0,0-1764.284,44.326Zm-14.524,8.28a6.794,6.794,0,0,1-1.41-4.549v-.782a7.672,7.672,0,0,1,.651-3.253,4.873,4.873,0,0,1,1.859-2.157,5.2,5.2,0,0,1,2.808-.751,5.217,5.217,0,0,1,3.568,1.186,4.865,4.865,0,0,1,1.564,3.332h-2.636a2.68,2.68,0,0,0-.69-1.8,2.556,2.556,0,0,0-1.806-.558,2.24,2.24,0,0,0-1.973.945,5.3,5.3,0,0,0-.672,2.931v.967a5.661,5.661,0,0,0,.628,3.032,2.2,2.2,0,0,0,1.982.958,2.6,2.6,0,0,0,1.823-.558,2.522,2.522,0,0,0,.69-1.727h2.637a4.529,4.529,0,0,1-1.526,3.252,5.352,5.352,0,0,1-3.625,1.186A4.816,4.816,0,0,1-1778.809,52.606Zm-56.514,0a6.8,6.8,0,0,1-1.411-4.549v-.782a7.674,7.674,0,0,1,.651-3.253,4.88,4.88,0,0,1,1.859-2.157,5.209,5.209,0,0,1,2.809-.751,5.214,5.214,0,0,1,3.568,1.186,4.87,4.87,0,0,1,1.565,3.332h-2.637a2.675,2.675,0,0,0-.69-1.8,2.555,2.555,0,0,0-1.805-.558,2.241,2.241,0,0,0-1.974.945,5.3,5.3,0,0,0-.672,2.931v.967a5.669,5.669,0,0,0,.628,3.032,2.2,2.2,0,0,0,1.982.958,2.606,2.606,0,0,0,1.824-.558,2.52,2.52,0,0,0,.689-1.727h2.637a4.528,4.528,0,0,1-1.525,3.252,5.356,5.356,0,0,1-3.626,1.186A4.816,4.816,0,0,1-1835.322,52.606Zm-37.227,1.116a4.256,4.256,0,0,1-1.85-1.481,3.792,3.792,0,0,1-.637-2.18h2.646q0,2.118,2.531,2.119a2.464,2.464,0,0,0,1.468-.382,1.243,1.243,0,0,0,.527-1.067,1.352,1.352,0,0,0-.527-1.147,6.915,6.915,0,0,0-1.9-.843,13.493,13.493,0,0,1-2.172-.875,3.546,3.546,0,0,1-2.179-3.173,3.088,3.088,0,0,1,.584-1.85,3.812,3.812,0,0,1,1.678-1.27,6.315,6.315,0,0,1,2.457-.457,5.753,5.753,0,0,1,2.443.5,3.892,3.892,0,0,1,1.665,1.4,3.667,3.667,0,0,1,.593,2.057h-2.636a1.724,1.724,0,0,0-.554-1.367,2.276,2.276,0,0,0-1.555-.488,2.431,2.431,0,0,0-1.5.409A1.29,1.29,0,0,0-1872,44.7a1.235,1.235,0,0,0,.629,1.047,7.093,7.093,0,0,0,1.849.79,8,8,0,0,1,3.279,1.679,3.34,3.34,0,0,1,1.028,2.5,3.08,3.08,0,0,1-1.256,2.606,5.507,5.507,0,0,1-3.384.944A6.537,6.537,0,0,1-1872.549,53.722Zm-25.137-.224a5.084,5.084,0,0,1-1.934-2.184,7.509,7.509,0,0,1-.694-3.265v-.633a7.674,7.674,0,0,1,.681-3.326,5.061,5.061,0,0,1,1.924-2.206,5.3,5.3,0,0,1,2.844-.77,5.291,5.291,0,0,1,2.843.77,5.061,5.061,0,0,1,1.924,2.206,7.653,7.653,0,0,1,.681,3.317v.571a7.725,7.725,0,0,1-.668,3.314,5.036,5.036,0,0,1-1.912,2.2,5.285,5.285,0,0,1-2.852.773A5.326,5.326,0,0,1-1897.686,53.5Zm.773-9.172a5.321,5.321,0,0,0-.729,3.028v.624a5.46,5.46,0,0,0,.72,3.041,2.343,2.343,0,0,0,2.075,1.081,2.323,2.323,0,0,0,2.039-1.041,5.428,5.428,0,0,0,.721-3.037V47.4a5.384,5.384,0,0,0-.721-3.058,2.348,2.348,0,0,0-2.056-1.046A2.35,2.35,0,0,0-1896.913,44.326ZM-1910.87,53.5a5.088,5.088,0,0,1-1.933-2.184,7.509,7.509,0,0,1-.695-3.265v-.633a7.69,7.69,0,0,1,.681-3.326,5.07,5.07,0,0,1,1.925-2.206,5.291,5.291,0,0,1,2.843-.77,5.291,5.291,0,0,1,2.843.77,5.07,5.07,0,0,1,1.925,2.206,7.669,7.669,0,0,1,.681,3.317v.571a7.738,7.738,0,0,1-.668,3.314,5.035,5.035,0,0,1-1.912,2.2,5.289,5.289,0,0,1-2.852.773A5.329,5.329,0,0,1-1910.87,53.5Zm.774-9.172a5.328,5.328,0,0,0-.73,3.028v.624a5.452,5.452,0,0,0,.721,3.041,2.342,2.342,0,0,0,2.074,1.081,2.321,2.321,0,0,0,2.038-1.041,5.42,5.42,0,0,0,.721-3.037V47.4a5.385,5.385,0,0,0-.721-3.058,2.347,2.347,0,0,0-2.057-1.046A2.349,2.349,0,0,0-1910.1,44.326Zm288.566,9.761v-12.8h3.938a5.978,5.978,0,0,1,3.019.76,5.3,5.3,0,0,1,2.079,2.162,6.674,6.674,0,0,1,.747,3.186v.59a6.686,6.686,0,0,1-.734,3.173,5.257,5.257,0,0,1-2.069,2.154,6.025,6.025,0,0,1-3.015.773Zm2.636-2.118h1.274a2.864,2.864,0,0,0,2.364-1.011,4.566,4.566,0,0,0,.835-2.892v-.677a4.637,4.637,0,0,0-.808-2.957,2.853,2.853,0,0,0-2.364-1.007h-1.3Zm-13.517,2.118v-12.8h8.56v2.136h-5.924v3.05h5.063v2.065h-5.062v3.428h5.942v2.118Zm-8.816,0V43.425h-3.867V41.289h10.424v2.136h-3.92V54.086Zm-8.913,0v-12.8h2.637v12.8Zm-5.872,0v-3.5l.264-6.038-3.454,9.536h-1.81l-3.445-9.527.264,6.029v3.5h-2.637v-12.8h3.445l3.287,9.282,3.27-9.282h3.463v12.8Zm-16.655,0v-12.8h2.637v12.8Zm-10.669,0v-12.8h2.636V51.969h5.6v2.118Zm-14.045,0v-4.64l-4.2-8.157h2.892l2.645,5.766,2.663-5.766h2.884l-4.2,8.157v4.64Zm-8.771,0-5.133-8.42v8.42h-2.637v-12.8h2.637l5.141,8.438V41.289h2.628v12.8Zm-12.524,0-.888-2.637h-4.623l-.878,2.637h-2.8l4.764-12.8h2.443l4.791,12.8Zm-4.8-4.773h3.2l-1.608-4.79Zm-14.115,4.773v-12.8h4.992a5.786,5.786,0,0,1,2.535.527,3.887,3.887,0,0,1,1.683,1.5,4.18,4.18,0,0,1,.589,2.21,3.673,3.673,0,0,1-1.287,2.966,5.364,5.364,0,0,1-3.564,1.085h-2.312v4.509Zm2.636-6.645h2.356a2.314,2.314,0,0,0,1.595-.492,1.788,1.788,0,0,0,.549-1.406,2.112,2.112,0,0,0-.554-1.521,2.069,2.069,0,0,0-1.529-.6h-2.417Zm-8.34,6.645v-3.5l.264-6.038-3.454,9.536h-1.811l-3.445-9.527.264,6.029v3.5h-2.637v-12.8h3.445l3.288,9.282,3.27-9.282h3.462v12.8Zm-46.882,0-2.4-4.685h-2.1v4.685h-2.636v-12.8h4.755a5.377,5.377,0,0,1,3.5,1.011,3.488,3.488,0,0,1,1.231,2.857,3.938,3.938,0,0,1-.567,2.184,3.869,3.869,0,0,1-1.718,1.393l2.768,5.229v.123Zm-4.5-6.82h2.128a2.173,2.173,0,0,0,1.537-.506,1.8,1.8,0,0,0,.545-1.392,1.932,1.932,0,0,0-.514-1.424,2.135,2.135,0,0,0-1.578-.519h-2.119Zm-7.392,6.82-.887-2.637h-4.623l-.878,2.637h-2.8l4.764-12.8h2.443l4.79,12.8Zm-4.8-4.773h3.2l-1.608-4.79Zm-9.167,4.773V48.6h-5.141v5.485h-2.637v-12.8h2.637v5.186h5.141V41.289h2.637v12.8Zm-26.006,0-5.133-8.42v8.42h-2.637v-12.8h2.637l5.141,8.438V41.289h2.628v12.8Zm-12.525,0-.887-2.637h-4.623l-.878,2.637h-2.8l4.764-12.8h2.443l4.791,12.8Zm-4.8-4.773h3.2l-1.608-4.79Zm-20.241,4.773-2.4-4.685h-2.1v4.685h-2.637v-12.8h4.755a5.378,5.378,0,0,1,3.5,1.011,3.488,3.488,0,0,1,1.23,2.857,3.938,3.938,0,0,1-.567,2.184,3.859,3.859,0,0,1-1.718,1.393l2.768,5.229v.123Zm-4.5-6.82h2.127a2.174,2.174,0,0,0,1.538-.506,1.8,1.8,0,0,0,.545-1.392,1.933,1.933,0,0,0-.515-1.424,2.133,2.133,0,0,0-1.578-.519h-2.118Zm-41.458,6.82v-12.8h3.938a5.984,5.984,0,0,1,3.019.76,5.3,5.3,0,0,1,2.078,2.162,6.676,6.676,0,0,1,.747,3.186v.59a6.7,6.7,0,0,1-.734,3.173,5.259,5.259,0,0,1-2.07,2.154,6.025,6.025,0,0,1-3.015.773Zm2.637-2.118h1.274a2.866,2.866,0,0,0,2.364-1.011,4.571,4.571,0,0,0,.834-2.892v-.677a4.638,4.638,0,0,0-.808-2.957,2.853,2.853,0,0,0-2.364-1.007h-1.3Zm-18.378,2.118v-12.8h2.636V51.969h5.6v2.118Zm-4.755,0-.887-2.637h-4.623l-.879,2.637h-2.8l4.764-12.8h2.443l4.79,12.8Zm-4.8-4.773h3.2l-1.608-4.79Zm-14.116,4.773v-12.8h4.992a5.786,5.786,0,0,1,2.536.527,3.9,3.9,0,0,1,1.683,1.5,4.18,4.18,0,0,1,.589,2.21,3.673,3.673,0,0,1-1.288,2.966,5.361,5.361,0,0,1-3.564,1.085h-2.311v4.509Zm2.637-6.645h2.355a2.315,2.315,0,0,0,1.6-.492,1.788,1.788,0,0,0,.549-1.406,2.112,2.112,0,0,0-.553-1.521,2.071,2.071,0,0,0-1.529-.6h-2.417Zm-13.518,6.645v-12.8h8.561v2.136h-5.924v3.05h5.063v2.065h-5.062v3.428h5.942v2.118Zm-5.7,0-5.133-8.42v8.42h-2.637v-12.8h2.637l5.142,8.438V41.289h2.628v12.8Zm78.775-21.166a3.961,3.961,0,0,1-1.313-3.187,4.058,4.058,0,0,1,1.466-3.3,5.375,5.375,0,0,1,2.868-1.157V22.568a3.6,3.6,0,0,1-1.479,1.135,5.237,5.237,0,0,1-2.091.4,5.843,5.843,0,0,1-2.78-.663,4.916,4.916,0,0,1-1.989-1.963,6.317,6.317,0,0,1-.739-3.163,5.923,5.923,0,0,1,.879-3.277,5.459,5.459,0,0,1,2.423-2.052,8.519,8.519,0,0,1,3.506-.688h1.274V9.97h-10.123V7.216h16.652l-.025,2.754h-3.188v5.152h-4.259a4.138,4.138,0,0,0-2.729.867,2.974,2.974,0,0,0-1.045,2.423,2.987,2.987,0,0,0,.841,2.231,3.057,3.057,0,0,0,2.244.829,2.928,2.928,0,0,0,1.976-.715,2.545,2.545,0,0,0,.829-2.039h3.034V25.5a5.006,5.006,0,0,1,2.729,1.807,8.68,8.68,0,0,1,1.581,5.38q0,.433-.051,1.2h-2.677V32.513a5.565,5.565,0,0,0-1.007-3.57,3.474,3.474,0,0,0-2.869-1.249,3.084,3.084,0,0,0-1.886.548,1.783,1.783,0,0,0-.74,1.517,1.7,1.7,0,0,0,.637,1.4,2.413,2.413,0,0,0,1.556.51q.485,0,.765-.025v2.371q-.332.026-.969.025A4.907,4.907,0,0,1-1902.777,32.92Zm286.046-7.688a4.525,4.525,0,0,1-1.861-3.608h3.289a2.2,2.2,0,0,0,.854,1.772,3.479,3.479,0,0,0,2.206.65,2.99,2.99,0,0,0,1.9-.535,1.729,1.729,0,0,0,.675-1.427,1.744,1.744,0,0,0-.751-1.569,3.532,3.532,0,0,0-1.976-.5h-.944a6.465,6.465,0,0,1-3.416-.88,3.3,3.3,0,0,1-1.453-3.073,3.224,3.224,0,0,1,1.313-2.818,5.619,5.619,0,0,1,3.327-.931h2.245V9.97h-9.282V7.216h15.555V9.97h-3.111v4.667h-4.539a3.3,3.3,0,0,0-1.581.345,1.234,1.234,0,0,0-.637,1.185,1.289,1.289,0,0,0,.561,1.16,2.548,2.548,0,0,0,1.428.37h1.147a6.324,6.324,0,0,1,3.71,1.058,3.8,3.8,0,0,1,1.517,3.353,3.976,3.976,0,0,1-1.453,3.238,6.329,6.329,0,0,1-4.131,1.2A7.478,7.478,0,0,1-1616.731,25.232Zm-195.8-.446a5.686,5.686,0,0,1-1.391-3.978V15.4h2.627a4.066,4.066,0,0,0,2.971-.931,3.718,3.718,0,0,0,.931-2.741V9.97h-8.849V7.216h14.638V9.97h-2.5V11.73q0,6.35-5.993,6.35h-.561v2.882a3.018,3.018,0,0,0,.523,1.849,1.8,1.8,0,0,0,1.543.7,1.851,1.851,0,0,0,1.492-.65,2.582,2.582,0,0,0,.548-1.722V20.5h3.162a4.9,4.9,0,0,1,.025.535,5.308,5.308,0,0,1-1.377,3.85,5.029,5.029,0,0,1-3.8,1.428A5.117,5.117,0,0,1-1812.533,24.786Zm-63.279-.013a5.681,5.681,0,0,1-1.427-4.017V15.606h2.065a3.98,3.98,0,0,0,2.984-.982,3.756,3.756,0,0,0,.943-2.715V9.97h-8.312V7.216h22.108V9.97h-2.856V26.087h-3.263V17.952h-10.4V20.91a3.067,3.067,0,0,0,.536,1.887,1.877,1.877,0,0,0,1.606.714,1.929,1.929,0,0,0,1.556-.662,2.557,2.557,0,0,0,.561-1.709v-.331h3.163a4.139,4.139,0,0,1,.025.484,4.861,4.861,0,0,1-1.4,3.672,5.316,5.316,0,0,1-3.85,1.352A5.217,5.217,0,0,1-1875.812,24.773Zm7.829-12.865a6.222,6.222,0,0,1-.893,3.366h5.3V9.97h-4.412Zm-22.53,12.877a5.69,5.69,0,0,1-1.39-3.978V15.4h2.626a4.064,4.064,0,0,0,2.971-.931,3.714,3.714,0,0,0,.931-2.741V9.97h-8.848V7.216h14.637V9.97h-2.5V11.73q0,6.35-5.992,6.35h-.561v2.882a3.012,3.012,0,0,0,.523,1.849,1.8,1.8,0,0,0,1.543.7,1.849,1.849,0,0,0,1.491-.65,2.582,2.582,0,0,0,.548-1.722V20.5h3.163a4.895,4.895,0,0,1,.025.535,5.312,5.312,0,0,1-1.377,3.85,5.03,5.03,0,0,1-3.8,1.428A5.119,5.119,0,0,1-1890.512,24.786Zm246.139,1.3V17.034h-3.8v1.5a5.937,5.937,0,0,1-1.338,4.131,4.911,4.911,0,0,1-3.839,1.48,5.346,5.346,0,0,1-3.812-1.352,4.663,4.663,0,0,1-1.441-3.57,4.43,4.43,0,0,1,1.517-3.608,5.915,5.915,0,0,1,3.914-1.262h1.938V9.97h-10.761V26.087h-3.289V9.97h-2.831V7.216h2.831a6.231,6.231,0,0,1,3.047-5.405q2.92-1.81,8.989-1.811,6.222,0,9.244,2A6.38,6.38,0,0,1-1641,7.216h2.767V9.97h-2.83V26.087Zm-10.493-8.479a1.977,1.977,0,0,0-.676,1.594,2.112,2.112,0,0,0,.6,1.581,2.113,2.113,0,0,0,1.543.586,1.931,1.931,0,0,0,1.594-.714,3.009,3.009,0,0,0,.573-1.938V17.034h-1.836A2.682,2.682,0,0,0-1654.866,17.608Zm6.693-3.251h3.8V9.97h-3.8Zm3.927-7.141a4.024,4.024,0,0,0-2.231-3.277q-2.256-1.237-6.846-1.237a15.1,15.1,0,0,0-6.5,1.058,3.8,3.8,0,0,0-2.193,3.455h17.773Zm-53.193,18.87V9.97h-2.831V7.216h2.831q.281-7.19,11.348-7.191,5.736,0,8.645,2a6.383,6.383,0,0,1,2.9,5.189h6.411V9.97h-5.432V12.9a4.965,4.965,0,0,1,2.487,2.052,6.61,6.61,0,0,1,.931,3.609,7.206,7.206,0,0,1-.74,3.315,5.35,5.35,0,0,1-2.18,2.27,6.967,6.967,0,0,1-3.481.815q-.2,0-.867-.05V22.032l.688.051a3.061,3.061,0,0,0,2.371-.944,3.586,3.586,0,0,0,.867-2.524,3.6,3.6,0,0,0-.7-2.3,2.368,2.368,0,0,0-1.976-.892,2.277,2.277,0,0,0-2.027,1.007,4.651,4.651,0,0,0-.676,2.639v.536h-2.754v-.536a4.74,4.74,0,0,0-.663-2.626,2.189,2.189,0,0,0-1.964-1.02,2.474,2.474,0,0,0-2.039.879,3.549,3.549,0,0,0-.714,2.308,3.587,3.587,0,0,0,.867,2.524,3.06,3.06,0,0,0,2.372.944l.688-.051v2.882q-.663.05-.868.05a6.888,6.888,0,0,1-3.468-.829,5.418,5.418,0,0,1-2.193-2.269,7.139,7.139,0,0,1-.739-3.3,6.776,6.776,0,0,1,.739-3.29,4.94,4.94,0,0,1,2.028-2.04,5.986,5.986,0,0,1,2.868-.688,4.331,4.331,0,0,1,2.844.893,5.038,5.038,0,0,1,1.568,2.3h.077a5.342,5.342,0,0,1,1.263-1.989,4.239,4.239,0,0,1,2.155-1.1V9.97h-17.34V26.087Zm19.637-18.87q-.415-4.487-8.341-4.487a13.176,13.176,0,0,0-5.954,1.045,3.8,3.8,0,0,0-2.078,3.443h16.373Zm-35.728,18.87V9.97h-4.59V26.087h-3.29v-9.97h-3.851a4.833,4.833,0,0,1,.893,2.932,4.789,4.789,0,0,1-.689,2.6,4.38,4.38,0,0,1-1.874,1.658,6.1,6.1,0,0,1-2.64.561,6.026,6.026,0,0,1-2.779-.637,4.96,4.96,0,0,1-1.989-1.823,5.168,5.168,0,0,1-.74-2.793,5.176,5.176,0,0,1,.765-2.868,4.782,4.782,0,0,1,2.078-1.786,7.03,7.03,0,0,1,2.946-.6h7.88V9.97h-15.606V7.216h15.606V6.375a7.136,7.136,0,0,1,1.338-4.564A5.131,5.131,0,0,1-1715.8.128q5.559,0,5.559,6.247v.842h2.831V9.97h-2.831V26.087Zm-17.863-9.269a2.388,2.388,0,0,0-.726,1.8,2.349,2.349,0,0,0,.726,1.786,2.616,2.616,0,0,0,1.875.688,2.473,2.473,0,0,0,1.81-.7,2.41,2.41,0,0,0,.715-1.8,2.379,2.379,0,0,0-.715-1.772,2.473,2.473,0,0,0-1.81-.7A2.587,2.587,0,0,0-1731.392,16.817Zm17.965-9.6V6.2a4.906,4.906,0,0,0-.51-2.334,1.918,1.918,0,0,0-1.861-.956,1.973,1.973,0,0,0-1.9.956,4.81,4.81,0,0,0-.522,2.334v1.02h4.793Zm-29.707,18.87V19.941a4.769,4.769,0,0,1-3.978,1.708,5.264,5.264,0,0,1-3.634-1.237,5.822,5.822,0,0,1-1.8-3.379h-3.876v1.5a5.937,5.937,0,0,1-1.338,4.131,4.911,4.911,0,0,1-3.838,1.48,5.346,5.346,0,0,1-3.812-1.352,4.663,4.663,0,0,1-1.441-3.57,4.43,4.43,0,0,1,1.517-3.608,5.915,5.915,0,0,1,3.914-1.262h1.938V9.97h-9V7.216h31.442V9.97h-2.831V26.087Zm-19.979-8.479a1.977,1.977,0,0,0-.676,1.594,2.112,2.112,0,0,0,.6,1.581,2.112,2.112,0,0,0,1.543.586,1.931,1.931,0,0,0,1.594-.714,3.008,3.008,0,0,0,.573-1.938V17.034h-1.836A2.682,2.682,0,0,0-1763.114,17.608Zm13.706-2.435a4.267,4.267,0,0,0,.778,2.716,2.827,2.827,0,0,0,2.359.982,2.893,2.893,0,0,0,2.308-.957,3.509,3.509,0,0,0,.829-2.384V9.97h-6.273Zm-7.013-.815h3.7V9.97h-3.7Zm-26.444,11.73V21.955a4.1,4.1,0,0,1-1.657,1.594,5.329,5.329,0,0,1-2.55.573,5.241,5.241,0,0,1-2.805-.739,4.957,4.957,0,0,1-1.861-2.092,6.965,6.965,0,0,1-.663-3.11,6.783,6.783,0,0,1,.676-3.1,4.97,4.97,0,0,1,1.912-2.078,5.478,5.478,0,0,1,2.868-.74,5.1,5.1,0,0,1,2.448.548,4.316,4.316,0,0,1,1.632,1.517V9.97h-11.577V7.216h25.934V9.97H-1779.7v4.412a4.136,4.136,0,0,1,1.568-1.543,4.737,4.737,0,0,1,2.384-.574,5,5,0,0,1,2.767.765,5.025,5.025,0,0,1,1.823,2.092,6.8,6.8,0,0,1,.637,2.984,6.738,6.738,0,0,1-.676,3.123,4.752,4.752,0,0,1-1.875,2,5.375,5.375,0,0,1-2.728.688,7.581,7.581,0,0,1-1.683-.179v-2.6a2.535,2.535,0,0,0,.79.1,2.717,2.717,0,0,0,2.04-.816,3.091,3.091,0,0,0,.79-2.244,3.1,3.1,0,0,0-.816-2.219,2.74,2.74,0,0,0-2.091-.868,2.592,2.592,0,0,0-2.18.969,3.708,3.708,0,0,0-.752,2.346v7.675Zm-5.3-10.149a3.023,3.023,0,0,0-.892,2.27,3.1,3.1,0,0,0,.867,2.3,3,3,0,0,0,2.219.867,3.028,3.028,0,0,0,1.7-.459,2.965,2.965,0,0,0,1.058-1.185,3.4,3.4,0,0,0,.356-1.517,3.268,3.268,0,0,0-.8-2.206,2.852,2.852,0,0,0-2.282-.931A3.059,3.059,0,0,0-1788.168,15.937Zm-34.2,10.149V9.97h-4.59V26.087h-3.29V21.6a5.043,5.043,0,0,1-1.938,1.633,6.017,6.017,0,0,1-2.677.586,5.745,5.745,0,0,1-3.277-.931,4.43,4.43,0,0,1-1.849-2.588h-3.928a5.437,5.437,0,0,1-2.014,2.983,5.947,5.947,0,0,1-3.647,1.1,6.093,6.093,0,0,1-4.055-1.327,4.937,4.937,0,0,1-1.785-3.442h3.111a2.6,2.6,0,0,0,.956,1.428,2.853,2.853,0,0,0,1.8.561,2.629,2.629,0,0,0,2.167-.943,3.641,3.641,0,0,0,.765-2.372,3.527,3.527,0,0,0-.778-2.32,2.639,2.639,0,0,0-2.155-.944,2.813,2.813,0,0,0-1.8.574,2.666,2.666,0,0,0-.956,1.415h-3.111a4.981,4.981,0,0,1,1.772-3.468,6.085,6.085,0,0,1,4.067-1.326,5.756,5.756,0,0,1,4.157,1.517,5.833,5.833,0,0,1,1.733,4.017h3.647a3.99,3.99,0,0,1,1.453-2.27h-3.825v-2.6h9.358v2.6h-.995a3.025,3.025,0,0,0-2.18.791,2.692,2.692,0,0,0-.829,2.039,2.489,2.489,0,0,0,.905,2.04,3.449,3.449,0,0,0,2.256.74,3.375,3.375,0,0,0,2.652-1.2,4.489,4.489,0,0,0,.995-3.009V9.97h-27.209V7.216h41.208V9.97h-2.83V26.087Zm-126.046,0V9.97H-1953V26.087h-3.263V19.941a4.768,4.768,0,0,1-3.978,1.708,5.067,5.067,0,0,1-4.156-1.772,7.187,7.187,0,0,1-1.453-4.705V9.97h-2.423V7.216h25.985V9.97h-2.831V26.087Zm-14.127-10.914a4.267,4.267,0,0,0,.778,2.716,2.827,2.827,0,0,0,2.359.982,2.893,2.893,0,0,0,2.307-.957,3.509,3.509,0,0,0,.829-2.384V9.97h-6.273Zm-11.857,10.914v-9.97h-3.851a4.834,4.834,0,0,1,.893,2.932,4.79,4.79,0,0,1-.688,2.6,4.381,4.381,0,0,1-1.874,1.658,6.1,6.1,0,0,1-2.64.561,6.027,6.027,0,0,1-2.779-.637,4.961,4.961,0,0,1-1.989-1.823,5.168,5.168,0,0,1-.74-2.793,5.176,5.176,0,0,1,.765-2.868,4.781,4.781,0,0,1,2.078-1.786,7.029,7.029,0,0,1,2.946-.6h7.88V9.97H-1990V7.216h15.693a20.651,20.651,0,0,0-1.8-2.473,3.616,3.616,0,0,0-1.44-1.046,6.16,6.16,0,0,0-1.976-.255h-1.249V.765h1.173a10.762,10.762,0,0,1,3.238.434,5.654,5.654,0,0,1,2.372,1.772,28.064,28.064,0,0,1,2.8,4.245h2.915V9.97h-2.831V26.087Zm-9.984-9.269a2.389,2.389,0,0,0-.726,1.8,2.349,2.349,0,0,0,.726,1.786,2.617,2.617,0,0,0,1.875.688,2.473,2.473,0,0,0,1.81-.7,2.41,2.41,0,0,0,.715-1.8,2.379,2.379,0,0,0-.715-1.772,2.473,2.473,0,0,0-1.81-.7A2.587,2.587,0,0,0-1984.378,16.817Zm13.247-9.5Zm338.436,17.238a6.184,6.184,0,0,1-2.55-2.3,6.3,6.3,0,0,1-.918-3.391,6.605,6.605,0,0,1,.905-3.519,5.889,5.889,0,0,1,2.576-2.27,9.056,9.056,0,0,1,3.914-.79h.127V9.97h-9.562V7.216h11.562a20.638,20.638,0,0,0-1.8-2.473,3.618,3.618,0,0,0-1.441-1.046,6.152,6.152,0,0,0-1.976-.255h-1.25V.765h1.174a10.762,10.762,0,0,1,3.238.434,5.654,5.654,0,0,1,2.371,1.772,28.055,28.055,0,0,1,2.8,4.245h2.889V9.97h-4.794v5.1h-3.137a4.713,4.713,0,0,0-3.085.982,3.433,3.433,0,0,0-1.2,2.818,3.487,3.487,0,0,0,1.058,2.626,3.785,3.785,0,0,0,2.741,1.02,3.749,3.749,0,0,0,2.793-1.071,3.751,3.751,0,0,0,1.058-2.754h3.136a7.022,7.022,0,0,1-.855,3.506,5.858,5.858,0,0,1-2.422,2.346,7.721,7.721,0,0,1-3.659.829A8.164,8.164,0,0,1-1632.695,24.557Zm9.231-17.238Zm-303.858,17.6V22.032l.689.051a3.06,3.06,0,0,0,2.371-.944,3.587,3.587,0,0,0,.868-2.524,3.6,3.6,0,0,0-.7-2.3,2.367,2.367,0,0,0-1.976-.892,2.278,2.278,0,0,0-2.027,1.007,4.651,4.651,0,0,0-.676,2.639v.536h-2.754v-.536a4.732,4.732,0,0,0-.663-2.626,2.189,2.189,0,0,0-1.963-1.02,2.476,2.476,0,0,0-2.04.879,3.549,3.549,0,0,0-.714,2.308,3.587,3.587,0,0,0,.867,2.524,3.061,3.061,0,0,0,2.371.944l.688-.051v2.882q-.663.05-.867.05a6.892,6.892,0,0,1-3.469-.829,5.42,5.42,0,0,1-2.192-2.269,7.125,7.125,0,0,1-.74-3.3,6.764,6.764,0,0,1,.74-3.29,4.936,4.936,0,0,1,2.027-2.04,5.99,5.99,0,0,1,2.869-.688,4.33,4.33,0,0,1,2.843.893,5.024,5.024,0,0,1,1.568,2.3h.076a5.354,5.354,0,0,1,1.263-1.989,4.239,4.239,0,0,1,2.155-1.1V9.97h-15.58V7.216h24.25V9.97h-5.431V12.9a4.959,4.959,0,0,1,2.486,2.052,6.609,6.609,0,0,1,.931,3.609,7.217,7.217,0,0,1-.739,3.315,5.351,5.351,0,0,1-2.181,2.27,6.962,6.962,0,0,1-3.481.815Q-1926.658,24.964-1927.321,24.914Z" transform="translate(1990.5 0.5)" fill="#00368c" stroke="rgba(0,0,0,0)" stroke-miterlimit="10" stroke-width="1"/>
</svg>
